<!DOCTYPE svg PUBLIC "-//W3C//DTD SVG 1.1//EN" "http://www.w3.org/Graphics/SVG/1.1/DTD/svg11.dtd"> <svg width="521px" height="521px" version="1.1" baseProfile="full" xmlns="http://www.w3.org/2000/svg" xmlns:xlink="http://www.w3.org/1999/xlink" xmlns:ev="http://www.w3.org/2001/xml-events"><polygon fill="rgb(118,61,22)" stroke="rgb(118,61,22)" points="433.14592838287354,125.38900929689407 426.0153830051422,130.92558467388153 427.42214798927307,121.80377238988876"></polygon><polygon fill="rgb(118,61,22)" stroke="rgb(118,61,22)" points="383.49940180778503,139.73231491446495 427.42214798927307,121.80377238988876 426.0153830051422,130.92558467388153"></polygon><polygon fill="rgb(118,61,22)" stroke="rgb(118,61,22)" points="425.58515667915344,142.05518394708633 383.49940180778503,139.73231491446495 426.0153830051422,130.92558467388153"></polygon><polygon fill="rgb(118,61,22)" stroke="rgb(118,61,22)" points="427.42214798927307,121.80377238988876 383.49940180778503,139.73231491446495 389.1249865293503,83.10100507736206"></polygon><polygon fill="rgb(118,61,22)" stroke="rgb(118,61,22)" points="389.1249865293503,83.10100507736206 435.7387036085129,82.22751450538635 427.42214798927307,121.80377238988876"></polygon><polygon fill="rgb(118,61,22)" stroke="rgb(118,61,22)" points="425.58515667915344,142.05518394708633 426.0153830051422,130.92558467388153 432.5691908597946,135.24741879105568"></polygon><polygon fill="rgb(246,133,27)" stroke="rgb(246,133,27)" points="274.4893044233322,59.88767218589783 341.44306629896164,71.15021538734436 340.8774331212044,98.15167838335037"></polygon><polygon fill="rgb(226,118,27)" stroke="rgb(226,118,27)" points="428.47712337970734,43.27829086780548 340.8774331212044,98.15167838335037 341.44306629896164,71.15021538734436"></polygon><polygon fill="rgb(118,61,22)" stroke="rgb(118,61,22)" points="425.58515667915344,142.05518394708633 421.0885673761368,158.26027350127697 383.49940180778503,139.73231491446495"></polygon><polygon fill="rgb(118,61,22)" stroke="rgb(118,61,22)" points="428.47712337970734,43.27829086780548 435.7387036085129,82.22751450538635 389.1249865293503,83.10100507736206"></polygon><polygon fill="rgb(118,61,22)" stroke="rgb(118,61,22)" points="389.1249865293503,83.10100507736206 383.49940180778503,139.73231491446495 371.0693210363388,139.01155787706375"></polygon><polygon fill="rgb(118,61,22)" stroke="rgb(118,61,22)" points="421.0885673761368,158.26027350127697 371.0693210363388,139.01155787706375 383.49940180778503,139.73231491446495"></polygon><polygon fill="rgb(118,61,22)" stroke="rgb(118,61,22)" points="421.0885673761368,158.26027350127697 425.58515667915344,142.05518394708633 430.959615111351,145.3469559252262"></polygon><polygon fill="rgb(246,133,27)" stroke="rgb(246,133,27)" points="401.6246438026428,152.4982263147831 421.0885673761368,158.26027350127697 437.01532781124115,218.41187739372253"></polygon><polygon fill="rgb(246,133,27)" stroke="rgb(246,133,27)" points="401.6246438026428,152.4982263147831 437.01532781124115,218.41187739372253 412.4687969684601,199.76108320057392"></polygon><polygon fill="rgb(228,118,27)" stroke="rgb(228,118,27)" points="382.57395923137665,249.186654150486 412.4687969684601,199.76108320057392 437.01532781124115,218.41187739372253"></polygon><polygon fill="rgb(228,118,27)" stroke="rgb(228,118,27)" points="437.01532781124115,218.41187739372253 424.68322813510895,281.3855929374695 382.57395923137665,249.186654150486"></polygon><polygon fill="rgb(118,61,22)" stroke="rgb(118,61,22)" points="389.1249865293503,83.10100507736206 340.8774331212044,98.15167838335037 428.47712337970734,43.27829086780548"></polygon><polygon fill="rgb(246,133,27)" stroke="rgb(246,133,27)" points="421.0885673761368,158.26027350127697 401.6246438026428,152.4982263147831 371.0693210363388,139.01155787706375"></polygon><polygon fill="rgb(118,61,22)" stroke="rgb(118,61,22)" points="371.0693210363388,139.01155787706375 340.8774331212044,98.15167838335037 389.1249865293503,83.10100507736206"></polygon><polygon fill="rgb(246,133,27)" stroke="rgb(246,133,27)" points="340.8774331212044,98.15167838335037 303.6916826851666,92.70730596780777 274.4893044233322,59.88767218589783"></polygon><polygon fill="rgb(226,118,27)" stroke="rgb(226,118,27)" points="382.57395923137665,249.186654150486 424.68322813510895,281.3855929374695 347.3872169852257,249.6963512301445"></polygon><polygon fill="rgb(228,118,27)" stroke="rgb(228,118,27)" points="303.6916826851666,92.70730596780777 210.34957766532898,-1.4413602352142334 274.4893044233322,59.88767218589783"></polygon><polygon fill="rgb(226,118,27)" stroke="rgb(226,118,27)" points="347.3872169852257,249.6963512301445 358.06766152381897,246.2013491988182 382.57395923137665,249.186654150486"></polygon><polygon fill="rgb(228,118,27)" stroke="rgb(228,118,27)" points="371.0693210363388,139.01155787706375 401.6246438026428,152.4982263147831 354.0929049253464,144.2832851409912"></polygon><polygon fill="rgb(228,118,27)" stroke="rgb(228,118,27)" points="354.0929049253464,144.2832851409912 340.8774331212044,98.15167838335037 371.0693210363388,139.01155787706375"></polygon><polygon fill="rgb(246,133,27)" stroke="rgb(246,133,27)" points="303.6916826851666,92.70730596780777 340.8774331212044,98.15167838335037 354.0929049253464,144.2832851409912"></polygon><polygon fill="rgb(118,61,22)" stroke="rgb(118,61,22)" points="256.07489347457886,125.63098305463791 230.00504225492477,121.77914744615555 244.77417469024658,59.294137835502625"></polygon><polygon fill="rgb(118,61,22)" stroke="rgb(118,61,22)" points="244.77417469024658,59.294137835502625 303.6916826851666,92.70730596780777 256.07489347457886,125.63098305463791"></polygon><polygon fill="rgb(118,61,22)" stroke="rgb(118,61,22)" points="244.77417469024658,59.294137835502625 230.00504225492477,121.77914744615555 184.44702923297882,88.53740966320038"></polygon><polygon fill="rgb(118,61,22)" stroke="rgb(118,61,22)" points="230.00504225492477,121.77914744615555 186.84519231319427,100.10457646846771 184.44702923297882,88.53740966320038"></polygon><polygon fill="rgb(118,61,22)" stroke="rgb(118,61,22)" points="188.40092718601227,113.78095829486847 186.84519231319427,100.10457646846771 230.00504225492477,121.77914744615555"></polygon><polygon fill="rgb(118,61,22)" stroke="rgb(118,61,22)" points="194.6847528219223,134.53147321939468 230.00504225492477,121.77914744615555 256.07489347457886,125.63098305463791"></polygon><polygon fill="rgb(118,61,22)" stroke="rgb(118,61,22)" points="188.40092718601227,113.78095829486847 230.00504225492477,121.77914744615555 194.6847528219223,134.53147321939468"></polygon><polygon fill="rgb(118,61,22)" stroke="rgb(118,61,22)" points="210.34957766532898,-1.4413602352142334 303.6916826851666,92.70730596780777 244.77417469024658,59.294137835502625"></polygon><polygon fill="rgb(246,133,27)" stroke="rgb(246,133,27)" points="354.0929049253464,144.2832851409912 323.06636944413185,140.85595926642418 303.6916826851666,92.70730596780777"></polygon><polygon fill="rgb(228,118,27)" stroke="rgb(228,118,27)" points="256.07489347457886,125.63098305463791 303.6916826851666,92.70730596780777 323.06636944413185,140.85595926642418"></polygon><polygon fill="rgb(226,118,27)" stroke="rgb(226,118,27)" points="263.3463844656944,247.62926173210144 172.65816628932953,281.66443514823914 266.4571411907673,246.197667658329"></polygon><polygon fill="rgb(246,133,27)" stroke="rgb(246,133,27)" points="412.4687969684601,199.76108320057392 388.1953686475754,193.4960442185402 401.6246438026428,152.4982263147831"></polygon><polygon fill="rgb(228,117,31)" stroke="rgb(228,117,31)" points="401.6246438026428,152.4982263147831 388.1953686475754,193.4960442185402 385.79677641391754,170.72570037841797"></polygon><polygon fill="rgb(205,97,22)" stroke="rgb(205,97,22)" points="354.0929049253464,144.2832851409912 401.6246438026428,152.4982263147831 385.79677641391754,170.72570037841797"></polygon><polygon fill="rgb(118,61,22)" stroke="rgb(118,61,22)" points="184.44702923297882,88.53740966320038 184.55409407615662,38.92783463001251 244.77417469024658,59.294137835502625"></polygon><polygon fill="rgb(118,61,22)" stroke="rgb(118,61,22)" points="244.77417469024658,59.294137835502625 184.55409407615662,38.92783463001251 210.34957766532898,-1.4413602352142334"></polygon><polygon fill="rgb(192,173,158)" stroke="rgb(192,173,158)" points="270.03641054034233,243.766195833683 289.47092816233635,249.36613190174103 263.3463844656944,247.62926173210144"></polygon><polygon fill="rgb(246,133,27)" stroke="rgb(246,133,27)" points="194.6847528219223,134.53147321939468 256.07489347457886,125.63098305463791 254.80059385299683,136.64763224124908"></polygon><polygon fill="rgb(228,118,27)" stroke="rgb(228,118,27)" points="323.06636944413185,140.85595926642418 254.80059385299683,136.64763224124908 256.07489347457886,125.63098305463791"></polygon><polygon fill="rgb(205,97,22)" stroke="rgb(205,97,22)" points="382.57395923137665,249.186654150486 388.1953686475754,193.4960442185402 412.4687969684601,199.76108320057392"></polygon><polygon fill="rgb(118,61,22)" stroke="rgb(118,61,22)" points="178.66153120994568,91.16658127307892 184.44702923297882,88.53740966320038 186.84519231319427,100.10457646846771"></polygon><polygon fill="rgb(118,61,22)" stroke="rgb(118,61,22)" points="188.40092718601227,113.78095829486847 180.27843832969666,103.49776321649551 186.84519231319427,100.10457646846771"></polygon><polygon fill="rgb(205,97,22)" stroke="rgb(205,97,22)" points="385.79677641391754,170.72570037841797 366.7800307273865,158.67083422839642 354.0929049253464,144.2832851409912"></polygon><polygon fill="rgb(118,61,22)" stroke="rgb(118,61,22)" points="194.6847528219223,134.53147321939468 183.02194476127625,116.36108160018921 188.40092718601227,113.78095829486847"></polygon><polygon fill="rgb(246,133,27)" stroke="rgb(246,133,27)" points="388.1953686475754,193.4960442185402 362.9710838198662,173.41715248674154 385.79677641391754,170.72570037841797"></polygon><polygon fill="rgb(35,52,71)" stroke="rgb(35,52,71)" points="362.9710838198662,173.41715248674154 366.7800307273865,158.67083422839642 385.79677641391754,170.72570037841797"></polygon><polygon fill="rgb(246,133,27)" stroke="rgb(246,133,27)" points="254.80059385299683,136.64763224124908 160.49295365810394,203.534119784832 194.6847528219223,134.53147321939468"></polygon><polygon fill="rgb(205,97,22)" stroke="rgb(205,97,22)" points="366.7800307273865,158.67083422839642 362.9710838198662,173.41715248674154 354.0929049253464,144.2832851409912"></polygon><polygon fill="rgb(192,173,158)" stroke="rgb(192,173,158)" points="389.7661864757538,230.99173307418823 382.57395923137665,249.186654150486 380.6051105260849,251.53063368797302"></polygon><polygon fill="rgb(215,193,179)" stroke="rgb(215,193,179)" points="397.1903622150421,213.3297176361084 382.57395923137665,249.186654150486 389.7661864757538,230.99173307418823"></polygon><polygon fill="rgb(246,133,27)" stroke="rgb(246,133,27)" points="330.83743304014206,155.69562035799026 323.06636944413185,140.85595926642418 354.0929049253464,144.2832851409912"></polygon><polygon fill="rgb(246,133,27)" stroke="rgb(246,133,27)" points="354.0929049253464,144.2832851409912 359.3695431947708,158.52897953987122 330.83743304014206,155.69562035799026"></polygon><polygon fill="rgb(228,118,27)" stroke="rgb(228,118,27)" points="266.4571411907673,246.197667658329 172.65816628932953,281.66443514823914 160.49295365810394,203.534119784832"></polygon><polygon fill="rgb(246,133,27)" stroke="rgb(246,133,27)" points="244.65314894914627,188.24885370582342 160.49295365810394,203.534119784832 254.80059385299683,136.64763224124908"></polygon><polygon fill="rgb(228,118,27)" stroke="rgb(228,118,27)" points="160.49295365810394,203.534119784832 244.65314894914627,188.24885370582342 266.4571411907673,246.197667658329"></polygon><polygon fill="rgb(205,97,22)" stroke="rgb(205,97,22)" points="323.06636944413185,140.85595926642418 307.7074443921447,152.77583780884743 284.83322001993656,161.5064307153225"></polygon><polygon fill="rgb(205,97,22)" stroke="rgb(205,97,22)" points="284.83322001993656,161.5064307153225 254.80059385299683,136.64763224124908 323.06636944413185,140.85595926642418"></polygon><polygon fill="rgb(205,97,22)" stroke="rgb(205,97,22)" points="307.7074443921447,152.77583780884743 323.06636944413185,140.85595926642418 320.7328386604786,169.72551229596138"></polygon><polygon fill="rgb(228,117,31)" stroke="rgb(228,117,31)" points="320.7328386604786,169.72551229596138 323.06636944413185,140.85595926642418 330.83743304014206,155.69562035799026"></polygon><polygon fill="rgb(35,52,71)" stroke="rgb(35,52,71)" points="320.7328386604786,169.72551229596138 284.83322001993656,161.5064307153225 307.7074443921447,152.77583780884743"></polygon><polygon fill="rgb(246,133,27)" stroke="rgb(246,133,27)" points="254.80059385299683,136.64763224124908 287.6186169683933,186.20942748337984 244.65314894914627,188.24885370582342"></polygon><polygon fill="rgb(228,117,31)" stroke="rgb(228,117,31)" points="254.80059385299683,136.64763224124908 284.83322001993656,161.5064307153225 287.6186169683933,186.20942748337984"></polygon><polygon fill="rgb(205,97,22)" stroke="rgb(205,97,22)" points="266.4571411907673,246.197667658329 244.65314894914627,188.24885370582342 287.6186169683933,186.20942748337984"></polygon><polygon fill="rgb(192,173,158)" stroke="rgb(192,173,158)" points="359.04643535614014,251.01859718561172 390.14322459697723,240.58695220947266 380.6051105260849,251.53063368797302"></polygon><polygon fill="rgb(246,133,27)" stroke="rgb(246,133,27)" points="287.6186169683933,186.20942748337984 284.83322001993656,161.5064307153225 320.7328386604786,169.72551229596138"></polygon><polygon fill="rgb(192,173,158)" stroke="rgb(192,173,158)" points="349.7829705476761,239.25062197446823 390.14322459697723,240.58695220947266 359.04643535614014,251.01859718561172"></polygon><polygon fill="rgb(192,173,158)" stroke="rgb(192,173,158)" points="359.04643535614014,251.01859718561172 313.52487690746784,249.93743377923965 349.7829705476761,239.25062197446823"></polygon><polygon fill="rgb(246,133,27)" stroke="rgb(246,133,27)" points="330.83743304014206,155.69562035799026 359.3695431947708,158.52897953987122 389.5104557275772,183.21813339740038"></polygon><polygon fill="rgb(192,173,158)" stroke="rgb(192,173,158)" points="289.47092816233635,249.36613190174103 266.4571411907673,246.197667658329 345.6278532743454,229.17602807283401"></polygon><polygon fill="rgb(228,118,27)" stroke="rgb(228,118,27)" points="356.6706597805023,184.30525145679712 266.4571411907673,246.197667658329 287.6186169683933,186.20942748337984"></polygon><polygon fill="rgb(215,193,179)" stroke="rgb(215,193,179)" points="353.331358730793,210.8613057434559 345.6278532743454,229.17602807283401 266.4571411907673,246.197667658329"></polygon><polygon fill="rgb(215,193,179)" stroke="rgb(215,193,179)" points="266.4571411907673,246.197667658329 356.6706597805023,184.30525145679712 353.331358730793,210.8613057434559"></polygon><polygon fill="rgb(228,117,31)" stroke="rgb(228,117,31)" points="330.83743304014206,155.69562035799026 361.54396533966064,180.94906644523144 320.7328386604786,169.72551229596138"></polygon><polygon fill="rgb(246,133,27)" stroke="rgb(246,133,27)" points="320.7328386604786,169.72551229596138 361.54396533966064,180.94906644523144 356.6706597805023,184.30525145679712"></polygon><polygon fill="rgb(246,133,27)" stroke="rgb(246,133,27)" points="356.6706597805023,184.30525145679712 287.6186169683933,186.20942748337984 320.7328386604786,169.72551229596138"></polygon><polygon fill="rgb(246,133,27)" stroke="rgb(246,133,27)" points="389.5104557275772,183.21813339740038 361.54396533966064,180.94906644523144 330.83743304014206,155.69562035799026"></polygon><polygon fill="rgb(192,173,158)" stroke="rgb(192,173,158)" points="313.52487690746784,249.93743377923965 289.47092816233635,249.36613190174103 349.7829705476761,239.25062197446823"></polygon><polygon fill="rgb(192,173,158)" stroke="rgb(192,173,158)" points="345.6278532743454,229.17602807283401 349.7829705476761,239.25062197446823 289.47092816233635,249.36613190174103"></polygon><polygon fill="rgb(192,173,158)" stroke="rgb(192,173,158)" points="390.14322459697723,240.58695220947266 398.2067406177521,207.41147154569626 397.1903622150421,213.3297176361084"></polygon><polygon fill="rgb(192,173,158)" stroke="rgb(192,173,158)" points="398.2067406177521,207.41147154569626 390.14322459697723,240.58695220947266 349.7829705476761,239.25062197446823"></polygon><polygon fill="rgb(192,173,158)" stroke="rgb(192,173,158)" points="349.7829705476761,239.25062197446823 345.6278532743454,229.17602807283401 353.331358730793,210.8613057434559"></polygon><polygon fill="rgb(192,173,158)" stroke="rgb(192,173,158)" points="349.7829705476761,239.25062197446823 359.6984177827835,205.050086915493 398.2067406177521,207.41147154569626"></polygon><polygon fill="rgb(22,22,22)" stroke="rgb(22,22,22)" points="365.9526005387306,183.29181095585227 400.4258930683136,186.0326100960374 398.2067406177521,207.41147154569626"></polygon><polygon fill="rgb(22,22,22)" stroke="rgb(22,22,22)" points="398.2067406177521,207.41147154569626 359.6984177827835,205.050086915493 365.9526005387306,183.29181095585227"></polygon><polygon fill="rgb(22,22,22)" stroke="rgb(22,22,22)" points="356.6706597805023,184.30525145679712 361.54396533966064,180.94906644523144 368.97127479314804,179.6713058259338"></polygon><polygon fill="rgb(192,173,158)" stroke="rgb(192,173,158)" points="353.331358730793,210.8613057434559 359.6984177827835,205.050086915493 349.7829705476761,239.25062197446823"></polygon><polygon fill="rgb(22,22,22)" stroke="rgb(22,22,22)" points="359.6984177827835,205.050086915493 353.331358730793,210.8613057434559 356.6706597805023,184.30525145679712"></polygon><polygon fill="rgb(22,22,22)" stroke="rgb(22,22,22)" points="356.6706597805023,184.30525145679712 365.9526005387306,183.29181095585227 359.6984177827835,205.050086915493"></polygon><polygon fill="rgb(22,22,22)" stroke="rgb(22,22,22)" points="368.97127479314804,179.6713058259338 365.9526005387306,183.29181095585227 356.6706597805023,184.30525145679712"></polygon><polygon fill="rgb(22,22,22)" stroke="rgb(22,22,22)" points="397.2179174423218,182.00683065131307 400.4258930683136,186.0326100960374 365.9526005387306,183.29181095585227"></polygon><polygon fill="rgb(22,22,22)" stroke="rgb(22,22,22)" points="365.9526005387306,183.29181095585227 368.97127479314804,179.6713058259338 397.2179174423218,182.00683065131307"></polygon></svg>