<!DOCTYPE svg PUBLIC "-//W3C//DTD SVG 1.1//EN" "http://www.w3.org/Graphics/SVG/1.1/DTD/svg11.dtd"> <svg width="521px" height="521px" version="1.1" baseProfile="full" xmlns="http://www.w3.org/2000/svg" xmlns:xlink="http://www.w3.org/1999/xlink" xmlns:ev="http://www.w3.org/2001/xml-events"><polygon fill="rgb(246,133,27)" stroke="rgb(246,133,27)" points="320.39637118577957,98.7759541273117 279.1175901889801,98.81840324401855 263.03184404969215,62.34334456920624"></polygon><polygon fill="rgb(246,133,27)" stroke="rgb(246,133,27)" points="263.03184404969215,62.34334456920624 336.7958776652813,62.24603307247162 320.39637118577957,98.7759541273117"></polygon><polygon fill="rgb(228,118,27)" stroke="rgb(228,118,27)" points="279.1175901889801,98.81840324401855 176.1709749698639,21.06022584438324 263.03184404969215,62.34334456920624"></polygon><polygon fill="rgb(226,118,27)" stroke="rgb(226,118,27)" points="423.4280526638031,20.65245544910431 320.39637118577957,98.7759541273117 336.7958776652813,62.24603307247162"></polygon><polygon fill="rgb(118,61,22)" stroke="rgb(118,61,22)" points="216.94748997688293,133.39379233121872 169.86598670482635,120.30690789222717 167.47713088989258,109.41338872909546"></polygon><polygon fill="rgb(118,61,22)" stroke="rgb(118,61,22)" points="171.3131546974182,133.39559596776962 169.86598670482635,120.30690789222717 216.94748997688293,133.39379233121872"></polygon><polygon fill="rgb(118,61,22)" stroke="rgb(118,61,22)" points="382.9173803329468,133.26876318454742 432.4223130941391,109.16305989027023 430.02146780490875,120.08370786905289"></polygon><polygon fill="rgb(118,61,22)" stroke="rgb(118,61,22)" points="177.69472002983093,152.4497429728508 216.94748997688293,133.39379233121872 237.2723489999771,136.32416594028473"></polygon><polygon fill="rgb(118,61,22)" stroke="rgb(118,61,22)" points="171.3131546974182,133.39559596776962 216.94748997688293,133.39379233121872 177.69472002983093,152.4497429728508"></polygon><polygon fill="rgb(118,61,22)" stroke="rgb(118,61,22)" points="428.5613179206848,133.20173686742783 382.9173803329468,133.26876318454742 430.02146780490875,120.08370786905289"></polygon><polygon fill="rgb(118,61,22)" stroke="rgb(118,61,22)" points="219.5383608341217,72.88446497917175 216.94748997688293,133.39379233121872 167.47713088989258,109.41338872909546"></polygon><polygon fill="rgb(118,61,22)" stroke="rgb(118,61,22)" points="237.2723489999771,136.32416594028473 216.94748997688293,133.39379233121872 219.5383608341217,72.88446497917175"></polygon><polygon fill="rgb(118,61,22)" stroke="rgb(118,61,22)" points="422.157883644104,152.3026670217514 362.44115978479385,136.23280909657478 382.9173803329468,133.26876318454742"></polygon><polygon fill="rgb(118,61,22)" stroke="rgb(118,61,22)" points="428.5613179206848,133.20173686742783 422.157883644104,152.3026670217514 382.9173803329468,133.26876318454742"></polygon><polygon fill="rgb(118,61,22)" stroke="rgb(118,61,22)" points="432.4223130941391,109.16305989027023 382.9173803329468,133.26876318454742 380.1013022661209,72.68607556819916"></polygon><polygon fill="rgb(118,61,22)" stroke="rgb(118,61,22)" points="380.1013022661209,72.68607556819916 382.9173803329468,133.26876318454742 362.44115978479385,136.23280909657478"></polygon><polygon fill="rgb(226,118,27)" stroke="rgb(226,118,27)" points="256.07896596193314,251.14208263158798 170.13373374938965,284.6176884174347 237.77798116207123,257.4152843952179"></polygon><polygon fill="rgb(226,118,27)" stroke="rgb(226,118,27)" points="237.77798116207123,257.4152843952179 253.4082368016243,250.61932510137558 256.07896596193314,251.14208263158798"></polygon><polygon fill="rgb(226,118,27)" stroke="rgb(226,118,27)" points="343.8111886382103,251.1583206653595 346.30051106214523,250.6361307501793 361.71301156282425,257.44442373514175"></polygon><polygon fill="rgb(226,118,27)" stroke="rgb(226,118,27)" points="361.71301156282425,257.44442373514175 429.90710735321045,284.7351369857788 343.8111886382103,251.1583206653595"></polygon><polygon fill="rgb(118,61,22)" stroke="rgb(118,61,22)" points="161.2819880247116,113.20464336872101 167.47713088989258,109.41338872909546 169.86598670482635,120.30690789222717"></polygon><polygon fill="rgb(118,61,22)" stroke="rgb(118,61,22)" points="438.6207640171051,112.95097780227661 430.02146780490875,120.08370786905289 432.4223130941391,109.16305989027023"></polygon><polygon fill="rgb(118,61,22)" stroke="rgb(118,61,22)" points="219.5383608341217,72.88446497917175 279.1175901889801,98.81840324401855 237.2723489999771,136.32416594028473"></polygon><polygon fill="rgb(118,61,22)" stroke="rgb(118,61,22)" points="167.47713088989258,109.41338872909546 160.51570773124695,63.40212166309357 219.5383608341217,72.88446497917175"></polygon><polygon fill="rgb(118,61,22)" stroke="rgb(118,61,22)" points="171.3131546974182,133.39559596776962 162.82744109630585,124.93175029754639 169.86598670482635,120.30690789222717"></polygon><polygon fill="rgb(118,61,22)" stroke="rgb(118,61,22)" points="362.44115978479385,136.23280909657478 320.39637118577957,98.7759541273117 380.1013022661209,72.68607556819916"></polygon><polygon fill="rgb(118,61,22)" stroke="rgb(118,61,22)" points="380.1013022661209,72.68607556819916 439.29690420627594,63.036429047584534 432.4223130941391,109.16305989027023"></polygon><polygon fill="rgb(118,61,22)" stroke="rgb(118,61,22)" points="428.5613179206848,133.20173686742783 430.02146780490875,120.08370786905289 437.0630443096161,124.70657157897949"></polygon><polygon fill="rgb(118,61,22)" stroke="rgb(118,61,22)" points="177.69472002983093,152.4497429728508 165.55074155330658,136.9168223440647 171.3131546974182,133.39559596776962"></polygon><polygon fill="rgb(118,61,22)" stroke="rgb(118,61,22)" points="422.157883644104,152.3026670217514 428.5613179206848,133.20173686742783 434.3260645866394,136.72181209921837"></polygon><polygon fill="rgb(228,118,27)" stroke="rgb(228,118,27)" points="237.77798116207123,257.4152843952179 170.13373374938965,284.6176884174347 154.63882684707642,216.82708296179771"></polygon><polygon fill="rgb(228,118,27)" stroke="rgb(228,118,27)" points="445.4105168581009,216.80138114094734 429.90710735321045,284.7351369857788 361.71301156282425,257.44442373514175"></polygon><polygon fill="rgb(246,133,27)" stroke="rgb(246,133,27)" points="177.69472002983093,152.4497429728508 237.2723489999771,136.32416594028473 218.68945062160492,154.69118577241898"></polygon><polygon fill="rgb(246,133,27)" stroke="rgb(246,133,27)" points="218.68945062160492,154.69118577241898 154.63882684707642,216.82708296179771 177.69472002983093,152.4497429728508"></polygon><polygon fill="rgb(246,133,27)" stroke="rgb(246,133,27)" points="422.157883644104,152.3026670217514 380.71247041225433,154.59663277864456 362.44115978479385,136.23280909657478"></polygon><polygon fill="rgb(246,133,27)" stroke="rgb(246,133,27)" points="380.71247041225433,154.59663277864456 422.157883644104,152.3026670217514 445.4105168581009,216.80138114094734"></polygon><polygon fill="rgb(246,133,27)" stroke="rgb(246,133,27)" points="208.30493867397308,206.2687325179577 154.63882684707642,216.82708296179771 218.68945062160492,154.69118577241898"></polygon><polygon fill="rgb(228,118,27)" stroke="rgb(228,118,27)" points="154.63882684707642,216.82708296179771 208.30493867397308,206.2687325179577 237.77798116207123,257.4152843952179"></polygon><polygon fill="rgb(118,61,22)" stroke="rgb(118,61,22)" points="176.1709749698639,21.06022584438324 279.1175901889801,98.81840324401855 219.5383608341217,72.88446497917175"></polygon><polygon fill="rgb(118,61,22)" stroke="rgb(118,61,22)" points="219.5383608341217,72.88446497917175 160.51570773124695,63.40212166309357 176.1709749698639,21.06022584438324"></polygon><polygon fill="rgb(246,133,27)" stroke="rgb(246,133,27)" points="380.71247041225433,154.59663277864456 445.4105168581009,216.80138114094734 391.09927117824554,206.2371980547905"></polygon><polygon fill="rgb(228,118,27)" stroke="rgb(228,118,27)" points="361.71301156282425,257.44442373514175 391.09927117824554,206.2371980547905 445.4105168581009,216.80138114094734"></polygon><polygon fill="rgb(118,61,22)" stroke="rgb(118,61,22)" points="423.4280526638031,20.65245544910431 439.29690420627594,63.036429047584534 380.1013022661209,72.68607556819916"></polygon><polygon fill="rgb(118,61,22)" stroke="rgb(118,61,22)" points="380.1013022661209,72.68607556819916 320.39637118577957,98.7759541273117 423.4280526638031,20.65245544910431"></polygon><polygon fill="rgb(228,118,27)" stroke="rgb(228,118,27)" points="237.2723489999771,136.32416594028473 279.1175901889801,98.81840324401855 282.27099627256393,154.15708920359612"></polygon><polygon fill="rgb(228,118,27)" stroke="rgb(228,118,27)" points="282.27099627256393,154.15708920359612 218.68945062160492,154.69118577241898 237.2723489999771,136.32416594028473"></polygon><polygon fill="rgb(228,118,27)" stroke="rgb(228,118,27)" points="362.44115978479385,136.23280909657478 380.71247041225433,154.59663277864456 316.8932877480984,154.1367478966713"></polygon><polygon fill="rgb(228,118,27)" stroke="rgb(228,118,27)" points="316.8932877480984,154.1367478966713 320.39637118577957,98.7759541273117 362.44115978479385,136.23280909657478"></polygon><polygon fill="rgb(246,133,27)" stroke="rgb(246,133,27)" points="279.1175901889801,98.81840324401855 320.39637118577957,98.7759541273117 316.8932877480984,154.1367478966713"></polygon><polygon fill="rgb(246,133,27)" stroke="rgb(246,133,27)" points="316.8932877480984,154.1367478966713 282.27099627256393,154.15708920359612 279.1175901889801,98.81840324401855"></polygon><polygon fill="rgb(205,97,22)" stroke="rgb(205,97,22)" points="237.77798116207123,257.4152843952179 208.30493867397308,206.2687325179577 244.23263669013977,203.7559379041195"></polygon><polygon fill="rgb(205,97,22)" stroke="rgb(205,97,22)" points="361.71301156282425,257.44442373514175 354.9616053700447,203.73462316393852 391.09927117824554,206.2371980547905"></polygon><polygon fill="rgb(205,97,22)" stroke="rgb(205,97,22)" points="243.84012669324875,178.46243446646258 218.68945062160492,154.69118577241898 282.27099627256393,154.15708920359612"></polygon><polygon fill="rgb(205,97,22)" stroke="rgb(205,97,22)" points="316.8932877480984,154.1367478966713 380.71247041225433,154.59663277864456 355.40545731782913,178.41847335360944"></polygon><polygon fill="rgb(246,133,27)" stroke="rgb(246,133,27)" points="218.68945062160492,154.69118577241898 244.23263669013977,203.7559379041195 208.30493867397308,206.2687325179577"></polygon><polygon fill="rgb(228,117,31)" stroke="rgb(228,117,31)" points="218.68945062160492,154.69118577241898 243.84012669324875,178.46243446646258 244.23263669013977,203.7559379041195"></polygon><polygon fill="rgb(246,133,27)" stroke="rgb(246,133,27)" points="391.09927117824554,206.2371980547905 354.9616053700447,203.73462316393852 380.71247041225433,154.59663277864456"></polygon><polygon fill="rgb(228,117,31)" stroke="rgb(228,117,31)" points="380.71247041225433,154.59663277864456 354.9616053700447,203.73462316393852 355.40545731782913,178.41847335360944"></polygon><polygon fill="rgb(205,97,22)" stroke="rgb(205,97,22)" points="282.27099627256393,154.15708920359612 266.80707558989525,167.7184175848961 243.84012669324875,178.46243446646258"></polygon><polygon fill="rgb(192,173,158)" stroke="rgb(192,173,158)" points="250.46866983175278,263.4991573691368 237.77798116207123,257.4152843952179 274.42498058080673,254.4076514840126"></polygon><polygon fill="rgb(205,97,22)" stroke="rgb(205,97,22)" points="355.40545731782913,178.41847335360944 332.39084109663963,167.68696600943804 316.8932877480984,154.1367478966713"></polygon><polygon fill="rgb(192,173,158)" stroke="rgb(192,173,158)" points="324.1299994289875,254.41814440488815 361.71301156282425,257.44442373514175 348.7984076142311,263.5270394682884"></polygon><polygon fill="rgb(246,133,27)" stroke="rgb(246,133,27)" points="244.23263669013977,203.7559379041195 243.84012669324875,178.46243446646258 276.086300611496,185.58281430602074"></polygon><polygon fill="rgb(35,52,71)" stroke="rgb(35,52,71)" points="276.086300611496,185.58281430602074 243.84012669324875,178.46243446646258 266.80707558989525,167.7184175848961"></polygon><polygon fill="rgb(246,133,27)" stroke="rgb(246,133,27)" points="354.9616053700447,203.73462316393852 323.0138383805752,185.56698938459158 355.40545731782913,178.41847335360944"></polygon><polygon fill="rgb(35,52,71)" stroke="rgb(35,52,71)" points="323.0138383805752,185.56698938459158 332.39084109663963,167.68696600943804 355.40545731782913,178.41847335360944"></polygon><polygon fill="rgb(205,97,22)" stroke="rgb(205,97,22)" points="266.80707558989525,167.7184175848961 282.27099627256393,154.15708920359612 276.086300611496,185.58281430602074"></polygon><polygon fill="rgb(205,97,22)" stroke="rgb(205,97,22)" points="332.39084109663963,167.68696600943804 323.0138383805752,185.56698938459158 316.8932877480984,154.1367478966713"></polygon><polygon fill="rgb(228,118,27)" stroke="rgb(228,118,27)" points="277.4577833712101,211.89279487729073 237.77798116207123,257.4152843952179 244.23263669013977,203.7559379041195"></polygon><polygon fill="rgb(215,193,179)" stroke="rgb(215,193,179)" points="274.15037602186203,238.88131147623062 274.42498058080673,254.4076514840126 237.77798116207123,257.4152843952179"></polygon><polygon fill="rgb(215,193,179)" stroke="rgb(215,193,179)" points="237.77798116207123,257.4152843952179 277.4577833712101,211.89279487729073 274.15037602186203,238.88131147623062"></polygon><polygon fill="rgb(228,118,27)" stroke="rgb(228,118,27)" points="320.9046743810177,211.8872486948967 354.9616053700447,203.73462316393852 361.71301156282425,257.44442373514175"></polygon><polygon fill="rgb(215,193,179)" stroke="rgb(215,193,179)" points="324.2308236658573,238.88568794727325 361.71301156282425,257.44442373514175 324.1299994289875,254.41814440488815"></polygon><polygon fill="rgb(215,193,179)" stroke="rgb(215,193,179)" points="361.71301156282425,257.44442373514175 324.2308236658573,238.88568794727325 320.9046743810177,211.8872486948967"></polygon><polygon fill="rgb(246,133,27)" stroke="rgb(246,133,27)" points="283.538955822587,171.55933986604214 282.27099627256393,154.15708920359612 316.8932877480984,154.1367478966713"></polygon><polygon fill="rgb(228,117,31)" stroke="rgb(228,117,31)" points="276.086300611496,185.58281430602074 282.27099627256393,154.15708920359612 283.538955822587,171.55933986604214"></polygon><polygon fill="rgb(246,133,27)" stroke="rgb(246,133,27)" points="316.8932877480984,154.1367478966713 315.4856599867344,171.54499896615744 283.538955822587,171.55933986604214"></polygon><polygon fill="rgb(226,118,27)" stroke="rgb(226,118,27)" points="323.0138383805752,185.56698938459158 315.4856599867344,171.54499896615744 316.8932877480984,154.1367478966713"></polygon><polygon fill="rgb(192,173,158)" stroke="rgb(192,173,158)" points="274.42498058080673,254.4076514840126 276.5323340892792,265.0909992456436 250.46866983175278,263.4991573691368"></polygon><polygon fill="rgb(192,173,158)" stroke="rgb(192,173,158)" points="348.7984076142311,263.5270394682884 321.9769947230816,265.1044575572014 324.1299994289875,254.41814440488815"></polygon><polygon fill="rgb(246,133,27)" stroke="rgb(246,133,27)" points="277.4577833712101,211.89279487729073 244.23263669013977,203.7559379041195 276.086300611496,185.58281430602074"></polygon><polygon fill="rgb(246,133,27)" stroke="rgb(246,133,27)" points="323.0138383805752,185.56698938459158 354.9616053700447,203.73462316393852 320.9046743810177,211.8872486948967"></polygon><polygon fill="rgb(228,117,31)" stroke="rgb(228,117,31)" points="283.538955822587,171.55933986604214 283.07380713522434,207.99567472934723 276.086300611496,185.58281430602074"></polygon><polygon fill="rgb(246,133,27)" stroke="rgb(246,133,27)" points="276.086300611496,185.58281430602074 283.07380713522434,207.99567472934723 277.4577833712101,211.89279487729073"></polygon><polygon fill="rgb(228,117,31)" stroke="rgb(228,117,31)" points="315.4856599867344,171.54499896615744 323.0138383805752,185.56698938459158 315.28698205947876,207.99056354165077"></polygon><polygon fill="rgb(246,133,27)" stroke="rgb(246,133,27)" points="320.9046743810177,211.8872486948967 315.28698205947876,207.99056354165077 323.0138383805752,185.56698938459158"></polygon><polygon fill="rgb(246,133,27)" stroke="rgb(246,133,27)" points="283.538955822587,171.55933986604214 315.4856599867344,171.54499896615744 315.28698205947876,207.99056354165077"></polygon><polygon fill="rgb(246,133,27)" stroke="rgb(246,133,27)" points="315.28698205947876,207.99056354165077 283.07380713522434,207.99567472934723 283.538955822587,171.55933986604214"></polygon><polygon fill="rgb(192,173,158)" stroke="rgb(192,173,158)" points="276.5323340892792,265.0909992456436 274.42498058080673,254.4076514840126 274.15037602186203,238.88131147623062"></polygon><polygon fill="rgb(192,173,158)" stroke="rgb(192,173,158)" points="324.2308236658573,238.88568794727325 324.1299994289875,254.41814440488815 321.9769947230816,265.1044575572014"></polygon><polygon fill="rgb(192,173,158)" stroke="rgb(192,173,158)" points="274.15037602186203,238.88131147623062 277.03157141804695,234.16780441999435 276.5323340892792,265.0909992456436"></polygon><polygon fill="rgb(192,173,158)" stroke="rgb(192,173,158)" points="276.5323340892792,265.0909992456436 277.03157141804695,234.16780441999435 321.2649531662464,234.17000591754913"></polygon><polygon fill="rgb(192,173,158)" stroke="rgb(192,173,158)" points="321.2649531662464,234.17000591754913 321.9769947230816,265.1044575572014 276.5323340892792,265.0909992456436"></polygon><polygon fill="rgb(192,173,158)" stroke="rgb(192,173,158)" points="321.9769947230816,265.1044575572014 321.2649531662464,234.17000591754913 324.2308236658573,238.88568794727325"></polygon><polygon fill="rgb(22,22,22)" stroke="rgb(22,22,22)" points="277.03157141804695,234.16780441999435 274.15037602186203,238.88131147623062 277.4577833712101,211.89279487729073"></polygon><polygon fill="rgb(22,22,22)" stroke="rgb(22,22,22)" points="320.9046743810177,211.8872486948967 324.2308236658573,238.88568794727325 321.2649531662464,234.17000591754913"></polygon><polygon fill="rgb(22,22,22)" stroke="rgb(22,22,22)" points="282.67617635428905,209.35859534144402 283.07380713522434,207.99567472934723 315.28698205947876,207.99056354165077"></polygon><polygon fill="rgb(22,22,22)" stroke="rgb(22,22,22)" points="277.4577833712101,211.89279487729073 283.07380713522434,207.99567472934723 282.67617635428905,209.35859534144402"></polygon><polygon fill="rgb(22,22,22)" stroke="rgb(22,22,22)" points="315.28698205947876,207.99056354165077 315.51497653126717,209.35374143719673 282.67617635428905,209.35859534144402"></polygon><polygon fill="rgb(22,22,22)" stroke="rgb(22,22,22)" points="315.51497653126717,209.35374143719673 315.28698205947876,207.99056354165077 320.9046743810177,211.8872486948967"></polygon><polygon fill="rgb(22,22,22)" stroke="rgb(22,22,22)" points="277.4577833712101,211.89279487729073 279.0757901966572,213.40150237083435 277.03157141804695,234.16780441999435"></polygon><polygon fill="rgb(22,22,22)" stroke="rgb(22,22,22)" points="282.67617635428905,209.35859534144402 279.0757901966572,213.40150237083435 277.4577833712101,211.89279487729073"></polygon><polygon fill="rgb(22,22,22)" stroke="rgb(22,22,22)" points="321.2649531662464,234.17000591754913 319.115486741066,213.39687392115593 320.9046743810177,211.8872486948967"></polygon><polygon fill="rgb(22,22,22)" stroke="rgb(22,22,22)" points="320.9046743810177,211.8872486948967 319.115486741066,213.39687392115593 315.51497653126717,209.35374143719673"></polygon><polygon fill="rgb(22,22,22)" stroke="rgb(22,22,22)" points="321.2649531662464,234.17000591754913 277.03157141804695,234.16780441999435 279.0757901966572,213.40150237083435"></polygon><polygon fill="rgb(22,22,22)" stroke="rgb(22,22,22)" points="279.0757901966572,213.40150237083435 319.115486741066,213.39687392115593 321.2649531662464,234.17000591754913"></polygon><polygon fill="rgb(22,22,22)" stroke="rgb(22,22,22)" points="279.0757901966572,213.40150237083435 282.67617635428905,209.35859534144402 315.51497653126717,209.35374143719673"></polygon><polygon fill="rgb(22,22,22)" stroke="rgb(22,22,22)" points="315.51497653126717,209.35374143719673 319.115486741066,213.39687392115593 279.0757901966572,213.40150237083435"></polygon></svg>